<svg width="37" height="30" viewBox="0 0 37 30" fill="none" xmlns="http://www.w3.org/2000/svg">
<path d="M36.0438 4.30586C34.7504 4.88008 33.3641 5.26562 31.9066 5.44062C33.3941 4.54922 34.5371 3.13828 35.073 1.45937C33.684 2.28242 32.1391 2.88125 30.5012 3.20391C29.1887 1.80391 27.3184 0.931641 25.2484 0.931641C21.2727 0.931641 18.0488 4.15273 18.0488 8.12851C18.0488 8.6918 18.1145 9.2414 18.2375 9.76914C12.2547 9.46836 6.95273 6.60273 3.40078 2.24687C2.78008 3.31328 2.42734 4.54922 2.42734 5.86719C2.42734 8.36367 3.69609 10.5676 5.6293 11.8609C4.44805 11.8227 3.33789 11.4973 2.36719 10.9586C2.36719 10.9887 2.36719 11.0187 2.36719 11.0488C2.36719 14.5379 4.85 17.4445 8.13945 18.109C7.53789 18.273 6.90078 18.3605 6.24453 18.3605C5.77969 18.3605 5.32852 18.3168 4.88828 18.2293C5.80703 21.0867 8.46484 23.173 11.6121 23.2305C9.15117 25.1609 6.04766 26.3094 2.67344 26.3094C2.09102 26.3094 1.51953 26.2766 0.958984 26.2082C4.1418 28.2535 7.92617 29.443 11.9922 29.443C25.232 29.443 32.4727 18.4754 32.4727 8.96523C32.4727 8.65352 32.4645 8.33906 32.4535 8.03281C33.859 7.01836 35.0785 5.74961 36.0438 4.30586Z" fill="#1F4287"/>
</svg>
